<mxfile host="app.diagrams.net" agent="Mozilla/5.0 (Windows NT 10.0; Win64; x64) AppleWebKit/537.36 (KHTML, like Gecko) Chrome/129.0.0.0 Safari/537.36" version="24.7.17">
  <diagram name="第 1 页" id="JeWldXXxksjpVP-zL5Ht">
    <mxGraphModel dx="1434" dy="738" grid="1" gridSize="10" guides="1" tooltips="1" connect="1" arrows="1" fold="1" page="1" pageScale="1" pageWidth="900" pageHeight="1600" math="0" shadow="0">
      <root>
        <mxCell id="0" />
        <mxCell id="1" parent="0" />
        <mxCell id="8GKyTfsWxNbbxCT-tOfK-8" value="" style="rounded=0;whiteSpace=wrap;html=1;dashed=1;dashPattern=12 12;" parent="1" vertex="1">
          <mxGeometry x="170" y="270" width="560" height="60" as="geometry" />
        </mxCell>
        <mxCell id="womFPRaeuXH6ECmNfBCx-7" value="林网退化问题盘点" style="rounded=0;whiteSpace=wrap;html=1;" parent="1" vertex="1">
          <mxGeometry x="230" y="282.5" width="120" height="35" as="geometry" />
        </mxCell>
        <mxCell id="8GKyTfsWxNbbxCT-tOfK-1" value="农田生态防护情况分析" style="rounded=0;whiteSpace=wrap;html=1;" parent="1" vertex="1">
          <mxGeometry x="558" y="282.5" width="140" height="35" as="geometry" />
        </mxCell>
        <mxCell id="8GKyTfsWxNbbxCT-tOfK-12" value="" style="shape=flexArrow;endArrow=classic;html=1;rounded=0;" parent="1" edge="1">
          <mxGeometry width="50" height="50" relative="1" as="geometry">
            <mxPoint x="457" y="120" as="sourcePoint" />
            <mxPoint x="457" y="170" as="targetPoint" />
            <Array as="points">
              <mxPoint x="457" y="145" />
            </Array>
          </mxGeometry>
        </mxCell>
        <mxCell id="8GKyTfsWxNbbxCT-tOfK-13" value="" style="shape=flexArrow;endArrow=classic;html=1;rounded=0;exitX=0.514;exitY=1;exitDx=0;exitDy=0;exitPerimeter=0;" parent="1" source="8GKyTfsWxNbbxCT-tOfK-7" edge="1">
          <mxGeometry width="50" height="50" relative="1" as="geometry">
            <mxPoint x="459" y="315" as="sourcePoint" />
            <mxPoint x="458" y="270" as="targetPoint" />
          </mxGeometry>
        </mxCell>
        <mxCell id="8GKyTfsWxNbbxCT-tOfK-16" value="" style="group" parent="1" vertex="1" connectable="0">
          <mxGeometry x="170" y="369.99999999999994" width="560" height="60" as="geometry" />
        </mxCell>
        <mxCell id="8GKyTfsWxNbbxCT-tOfK-10" value="" style="rounded=0;whiteSpace=wrap;html=1;dashed=1;dashPattern=12 12;" parent="8GKyTfsWxNbbxCT-tOfK-16" vertex="1">
          <mxGeometry width="560" height="60" as="geometry" />
        </mxCell>
        <mxCell id="8GKyTfsWxNbbxCT-tOfK-4" value="发布再核查监管任务" style="rounded=0;whiteSpace=wrap;html=1;" parent="8GKyTfsWxNbbxCT-tOfK-16" vertex="1">
          <mxGeometry x="60" y="12.502631578947367" width="130" height="35" as="geometry" />
        </mxCell>
        <mxCell id="8GKyTfsWxNbbxCT-tOfK-5" value="林网退化问题图层" style="rounded=0;whiteSpace=wrap;html=1;" parent="8GKyTfsWxNbbxCT-tOfK-16" vertex="1">
          <mxGeometry x="400" y="12.502631578947367" width="120" height="35" as="geometry" />
        </mxCell>
        <mxCell id="8GKyTfsWxNbbxCT-tOfK-17" value="" style="group" parent="1" vertex="1" connectable="0">
          <mxGeometry x="170" y="60" width="560" height="60" as="geometry" />
        </mxCell>
        <mxCell id="8GKyTfsWxNbbxCT-tOfK-6" value="" style="rounded=0;whiteSpace=wrap;html=1;dashed=1;dashPattern=12 12;" parent="8GKyTfsWxNbbxCT-tOfK-17" vertex="1">
          <mxGeometry width="560" height="60" as="geometry" />
        </mxCell>
        <mxCell id="womFPRaeuXH6ECmNfBCx-2" value="林网监测数据" style="rounded=0;whiteSpace=wrap;html=1;" parent="8GKyTfsWxNbbxCT-tOfK-17" vertex="1">
          <mxGeometry x="380" y="11.052631578947368" width="140" height="35" as="geometry" />
        </mxCell>
        <mxCell id="womFPRaeuXH6ECmNfBCx-3" value="林网设施边界矢量数据" style="rounded=0;whiteSpace=wrap;html=1;" parent="8GKyTfsWxNbbxCT-tOfK-17" vertex="1">
          <mxGeometry x="60" y="11.052631578947368" width="140" height="35" as="geometry" />
        </mxCell>
        <mxCell id="8GKyTfsWxNbbxCT-tOfK-18" value="" style="group" parent="1" vertex="1" connectable="0">
          <mxGeometry x="170" y="170" width="560" height="60" as="geometry" />
        </mxCell>
        <mxCell id="8GKyTfsWxNbbxCT-tOfK-7" value="" style="rounded=0;whiteSpace=wrap;html=1;dashed=1;dashPattern=12 12;" parent="8GKyTfsWxNbbxCT-tOfK-18" vertex="1">
          <mxGeometry width="560" height="60" as="geometry" />
        </mxCell>
        <mxCell id="womFPRaeuXH6ECmNfBCx-4" value="目视解译" style="rounded=0;whiteSpace=wrap;html=1;" parent="8GKyTfsWxNbbxCT-tOfK-18" vertex="1">
          <mxGeometry x="60" y="12.502631578947367" width="120" height="35" as="geometry" />
        </mxCell>
        <mxCell id="womFPRaeuXH6ECmNfBCx-5" value="空间分析" style="rounded=0;whiteSpace=wrap;html=1;" parent="8GKyTfsWxNbbxCT-tOfK-18" vertex="1">
          <mxGeometry x="400" y="12.502631578947367" width="120" height="35" as="geometry" />
        </mxCell>
        <mxCell id="6J-l0BTjz0PANjbMCFgV-1" value="" style="shape=flexArrow;endArrow=classic;html=1;rounded=0;exitX=0.514;exitY=1;exitDx=0;exitDy=0;exitPerimeter=0;" edge="1" parent="1">
          <mxGeometry width="50" height="50" relative="1" as="geometry">
            <mxPoint x="458" y="330" as="sourcePoint" />
            <mxPoint x="458" y="370" as="targetPoint" />
          </mxGeometry>
        </mxCell>
      </root>
    </mxGraphModel>
  </diagram>
</mxfile>
